<?xml version="1.0" encoding="UTF-8"?>
<svg xmlns="http://www.w3.org/2000/svg" data-name="Layer 1" id="Layer_1" viewBox="0 0 64 64"><defs><style>.cls-1{fill:none;stroke:#37a849;stroke-linecap:round;stroke-linejoin:round;stroke-width:2px;}</style></defs><title/><polygon class="cls-1" points="25 11 10 15 10 53 25 49 25 11" style="fill: none; stroke: #37a849; stroke-linecap: round; stroke-linejoin: round; stroke-width: 2px;"/><polyline class="cls-1" points="34.17 13.5 25 11 25 49 40 53 40 26.44" style="fill: none; stroke: #37a849; stroke-linecap: round; stroke-linejoin: round; stroke-width: 2px;"/><polyline class="cls-1" points="40 26.44 40 53 55 49 55 26.44" style="fill: none; stroke: #37a849; stroke-linecap: round; stroke-linejoin: round; stroke-width: 2px;"/><path class="cls-1" d="M47.5,5.55h0a9.21,9.21,0,0,1,9.21,9.21v0A9.21,9.21,0,0,1,47.5,24H38.29a0,0,0,0,1,0,0V14.77A9.21,9.21,0,0,1,47.5,5.55Z" transform="translate(3.47 37.92) rotate(-45.01)" style="fill: none; stroke: #37a849; stroke-linecap: round; stroke-linejoin: round; stroke-width: 2px;"/><circle class="cls-1" cx="47.5" cy="14.68" r="4.28" style="fill: none; stroke: #37a849; stroke-linecap: round; stroke-linejoin: round; stroke-width: 2px;"/>
	<metadata>
		<rdf:RDF xmlns:rdf="http://www.w3.org/1999/02/22-rdf-syntax-ns#" xmlns:rdfs="http://www.w3.org/2000/01/rdf-schema#" xmlns:dc="http://purl.org/dc/elements/1.1/">
			<rdf:Description about="https://iconscout.com/legal#licenses" dc:title="2305589,address,direction,location,map,navigation,pin" dc:description="2305589,address,direction,location,map,navigation,pin" dc:publisher="Iconscout" dc:date="2017-07-08" dc:format="image/svg+xml" dc:language="en">
				<dc:creator>
					<rdf:Bag>
						<rdf:li>Laura Reen</rdf:li>
					</rdf:Bag>
				</dc:creator>
			</rdf:Description>
		</rdf:RDF>
    </metadata></svg>
