<svg xmlns="http://www.w3.org/2000/svg" width="26" height="26" viewBox="0 0 26 26"><g fill="#fff" transform="translate(5 -1031.362)"><circle cx="8" cy="1044.362" r="13" fill="#3a6c87"/><path style="line-height:normal;text-indent:0;text-align:start;text-decoration-line:none;text-decoration-style:solid;text-decoration-color:#000;text-transform:none;block-progression:tb;isolation:auto;mix-blend-mode:normal" d="m 6.4940179,1036.3604 a 0.50004997,0.50004997 0 0 0 -0.111328,0.02 l -4.796875,0 a 0.50004997,0.50004997 0 0 0 -0.1015621,-0.01 0.50004997,0.50004997 0 0 0 -0.482422,0.5157 c 0.141177,7.8954 6.4943201,14.271 14.3750002,14.4609 a 0.50005,0.50005 0 0 0 0.615234,-0.4004 0.50005,0.50005 0 0 0 0.0059,-0.049 0.50005,0.50005 0 0 0 0.002,-0.041 0.50006107,0.50006107 0 0 0 0,-0.01 l 0,-4.9746 a 0.50005,0.50005 0 0 0 -0.507813,-0.5059 0.50005,0.50005 0 0 0 -0.05664,0 c -1.08782,0.045 -2.162222,-0.255 -3.064454,-0.8652 a 0.50004997,0.50004997 0 0 0 -0.05664,-0.033 0.50005,0.50005 0 0 0 -0.300782,-0.088 0.50005,0.50005 0 0 0 -0.429687,0.2754 l -0.02148,0.041 -0.728516,1.414 c -1.9557911,-1.0177 -3.5451841,-2.6135 -4.5566411,-4.5722 l 1.462891,-0.75 a 0.50005,0.50005 0 0 0 0.177734,-0.7442 0.50004997,0.50004997 0 0 0 -0.02734,-0.041 c -0.617663,-0.9131 -0.921338,-2.0024 -0.867188,-3.1035 a 0.50004997,0.50004997 0 0 0 -0.529297,-0.5449 z m -4.458984,1.0195 4.007812,0 c 0.03597,0.9718 0.301268,1.9146 0.779297,2.7617 l -1.345703,0.6875 a 0.50004994,0.50004994 0 0 0 -0.376953,0.4766 0.50011061,0.50011061 0 0 0 0.09766,0.3203 c 1.143864,2.4262 3.086921,4.3828 5.5039061,5.5449 a 0.50005,0.50005 0 0 0 0.792969,-0.1543 l 0.744141,-1.4414 c 0.847103,0.4782 1.789846,0.7452 2.761719,0.7813 l 0,3.9687 c -6.9974031,-0.3707 -12.5828521,-5.9485 -12.9648441,-12.9453 z" color="#000" font-family="sans-serif" font-weight="400" overflow="visible" transform="translate(-.5 .504)" white-space="normal"/></g></svg>